<svg width="45" height="46" viewBox="0 0 45 46" fill="none" xmlns="http://www.w3.org/2000/svg">
<path fill-rule="evenodd" clip-rule="evenodd" d="M1.875 22.7427C1.875 11.3518 11.1091 2.11768 22.5 2.11768C33.8909 2.11768 43.125 11.3518 43.125 22.7427C43.125 34.1335 33.8909 43.3677 22.5 43.3677C11.1091 43.3677 1.875 34.1335 1.875 22.7427ZM23.4375 10.5552C24.473 10.5552 25.3125 11.3946 25.3125 12.4302V19.9302H32.8125C33.848 19.9302 34.6875 20.7696 34.6875 21.8052V23.6802C34.6875 24.7157 33.848 25.5552 32.8125 25.5552H25.3125V33.0552C25.3125 34.0907 24.473 34.9302 23.4375 34.9302H21.5625C20.527 34.9302 19.6875 34.0907 19.6875 33.0552V25.5552H12.1875C11.152 25.5552 10.3125 24.7157 10.3125 23.6802V21.8052C10.3125 20.7696 11.152 19.9302 12.1875 19.9302H19.6875V12.4302C19.6875 11.3946 20.527 10.5552 21.5625 10.5552H23.4375Z" fill="white"/>
</svg>
