<svg width="222" height="60" viewBox="0 0 222 60" fill="none" xmlns="http://www.w3.org/2000/svg">
<g filter="url(#filter0_dd_29_1655)">
<rect x="6" y="2" width="210" height="48" rx="8" fill="#A78295"/>
<path d="M57.6477 20.3636H60.2273L63.6818 28.7955H63.8182L67.2727 20.3636H69.8523V32H67.8295V24.0057H67.7216L64.5057 31.9659H62.9943L59.7784 23.9886H59.6705V32H57.6477V20.3636ZM77.6993 28.3295V23.2727H79.7561V32H77.7618V30.4489H77.6709C77.4739 30.9375 77.1501 31.3371 76.6993 31.6477C76.2523 31.9583 75.7012 32.1136 75.0459 32.1136C74.4739 32.1136 73.9683 31.9867 73.5289 31.733C73.0933 31.4754 72.7523 31.1023 72.5061 30.6136C72.2599 30.1212 72.1368 29.5265 72.1368 28.8295V23.2727H74.1936V28.5114C74.1936 29.0644 74.3452 29.5038 74.6482 29.8295C74.9512 30.1553 75.3489 30.3182 75.8414 30.3182C76.1444 30.3182 76.438 30.2443 76.722 30.0966C77.0061 29.9489 77.2391 29.7292 77.4209 29.4375C77.6065 29.142 77.6993 28.7727 77.6993 28.3295ZM84.008 20.3636V32H81.9512V20.3636H84.008ZM88.7144 32.1761C88.1614 32.1761 87.6633 32.0777 87.2201 31.8807C86.7807 31.6799 86.4322 31.3845 86.1747 30.9943C85.9209 30.6042 85.794 30.1231 85.794 29.5511C85.794 29.0587 85.8849 28.6515 86.0667 28.3295C86.2485 28.0076 86.4966 27.75 86.811 27.5568C87.1254 27.3636 87.4796 27.2178 87.8735 27.1193C88.2712 27.017 88.6822 26.9432 89.1065 26.8977C89.6178 26.8447 90.0326 26.7973 90.3508 26.7557C90.669 26.7102 90.9 26.642 91.044 26.5511C91.1917 26.4564 91.2656 26.3106 91.2656 26.1136V26.0795C91.2656 25.6515 91.1387 25.3201 90.8849 25.0852C90.6311 24.8504 90.2656 24.733 89.7883 24.733C89.2845 24.733 88.8849 24.8428 88.5894 25.0625C88.2978 25.2822 88.1008 25.5417 87.9985 25.8409L86.0781 25.5682C86.2296 25.0379 86.4796 24.5947 86.8281 24.2386C87.1766 23.8788 87.6027 23.6098 88.1065 23.4318C88.6103 23.25 89.1671 23.1591 89.7769 23.1591C90.1974 23.1591 90.6159 23.2083 91.0326 23.3068C91.4493 23.4053 91.83 23.5682 92.1747 23.7955C92.5194 24.0189 92.7959 24.3239 93.0042 24.7102C93.2163 25.0966 93.3224 25.5795 93.3224 26.1591V32H91.3451V30.8011H91.2769C91.1519 31.0436 90.9758 31.2708 90.7485 31.483C90.525 31.6913 90.2428 31.8598 89.9019 31.9886C89.5648 32.1136 89.169 32.1761 88.7144 32.1761ZM89.2485 30.6648C89.6614 30.6648 90.0194 30.5833 90.3224 30.4205C90.6254 30.2538 90.8584 30.0341 91.0212 29.7614C91.1879 29.4886 91.2712 29.1913 91.2712 28.8693V27.8409C91.2069 27.8939 91.097 27.9432 90.9417 27.9886C90.7902 28.0341 90.6197 28.0739 90.4303 28.108C90.2409 28.142 90.0534 28.1723 89.8678 28.1989C89.6822 28.2254 89.5212 28.2481 89.3849 28.267C89.0781 28.3087 88.8034 28.3769 88.561 28.4716C88.3186 28.5663 88.1273 28.6989 87.9872 28.8693C87.847 29.036 87.7769 29.2519 87.7769 29.517C87.7769 29.8958 87.9152 30.1818 88.1917 30.375C88.4682 30.5682 88.8205 30.6648 89.2485 30.6648ZM95.4706 32V23.2727H97.5274V32H95.4706ZM96.5047 22.0341C96.1789 22.0341 95.8986 21.9261 95.6637 21.7102C95.4289 21.4905 95.3115 21.2273 95.3115 20.9205C95.3115 20.6098 95.4289 20.3466 95.6637 20.1307C95.8986 19.911 96.1789 19.8011 96.5047 19.8011C96.8342 19.8011 97.1145 19.911 97.3456 20.1307C97.5804 20.3466 97.6978 20.6098 97.6978 20.9205C97.6978 21.2273 97.5804 21.4905 97.3456 21.7102C97.1145 21.9261 96.8342 22.0341 96.5047 22.0341ZM114.26 26.1818C114.26 27.4356 114.025 28.5095 113.555 29.4034C113.089 30.2936 112.453 30.9754 111.646 31.4489C110.843 31.9223 109.932 32.1591 108.913 32.1591C107.894 32.1591 106.981 31.9223 106.175 31.4489C105.372 30.9716 104.735 30.2879 104.266 29.3977C103.8 28.5038 103.567 27.4318 103.567 26.1818C103.567 24.928 103.8 23.8561 104.266 22.9659C104.735 22.072 105.372 21.3883 106.175 20.9148C106.981 20.4413 107.894 20.2045 108.913 20.2045C109.932 20.2045 110.843 20.4413 111.646 20.9148C112.453 21.3883 113.089 22.072 113.555 22.9659C114.025 23.8561 114.26 24.928 114.26 26.1818ZM112.141 26.1818C112.141 25.2992 112.002 24.5549 111.726 23.9489C111.453 23.339 111.074 22.8788 110.589 22.5682C110.105 22.2538 109.546 22.0966 108.913 22.0966C108.281 22.0966 107.722 22.2538 107.237 22.5682C106.752 22.8788 106.372 23.339 106.095 23.9489C105.822 24.5549 105.686 25.2992 105.686 26.1818C105.686 27.0644 105.822 27.8106 106.095 28.4205C106.372 29.0265 106.752 29.4867 107.237 29.8011C107.722 30.1117 108.281 30.267 108.913 30.267C109.546 30.267 110.105 30.1117 110.589 29.8011C111.074 29.4867 111.453 29.0265 111.726 28.4205C112.002 27.8106 112.141 27.0644 112.141 26.1818ZM116.333 32V20.3636H118.39V24.7159H118.475C118.581 24.5038 118.73 24.2784 118.924 24.0398C119.117 23.7973 119.378 23.5909 119.708 23.4205C120.037 23.2462 120.458 23.1591 120.969 23.1591C121.643 23.1591 122.251 23.3314 122.793 23.6761C123.338 24.017 123.77 24.5227 124.088 25.1932C124.41 25.8598 124.571 26.678 124.571 27.6477C124.571 28.6061 124.414 29.4205 124.1 30.0909C123.785 30.7614 123.357 31.2727 122.816 31.625C122.274 31.9773 121.66 32.1534 120.975 32.1534C120.475 32.1534 120.06 32.0701 119.73 31.9034C119.401 31.7367 119.136 31.536 118.935 31.3011C118.738 31.0625 118.585 30.8371 118.475 30.625H118.355V32H116.333ZM118.35 27.6364C118.35 28.2008 118.429 28.6951 118.588 29.1193C118.751 29.5436 118.984 29.875 119.287 30.1136C119.594 30.3485 119.965 30.4659 120.401 30.4659C120.855 30.4659 121.236 30.3447 121.543 30.1023C121.85 29.8561 122.081 29.5208 122.236 29.0966C122.395 28.6686 122.475 28.1818 122.475 27.6364C122.475 27.0947 122.397 26.6136 122.242 26.1932C122.087 25.7727 121.855 25.4432 121.549 25.2045C121.242 24.9659 120.859 24.8466 120.401 24.8466C119.962 24.8466 119.588 24.9621 119.282 25.1932C118.975 25.4242 118.742 25.7481 118.583 26.1648C118.427 26.5814 118.35 27.072 118.35 27.6364ZM126.4 32V23.2727H128.394V24.7273H128.485C128.644 24.2235 128.917 23.8352 129.303 23.5625C129.694 23.286 130.139 23.1477 130.639 23.1477C130.752 23.1477 130.879 23.1534 131.019 23.1648C131.163 23.1723 131.283 23.1856 131.377 23.2045V25.0966C131.29 25.0663 131.152 25.0398 130.962 25.017C130.777 24.9905 130.597 24.9773 130.423 24.9773C130.048 24.9773 129.711 25.0587 129.411 25.2216C129.116 25.3807 128.883 25.6023 128.712 25.8864C128.542 26.1705 128.457 26.4981 128.457 26.8693V32H126.4ZM136.271 32.1705C135.419 32.1705 134.68 31.983 134.055 31.608C133.43 31.233 132.945 30.7083 132.601 30.0341C132.26 29.3598 132.089 28.572 132.089 27.6705C132.089 26.7689 132.26 25.9792 132.601 25.3011C132.945 24.6231 133.43 24.0966 134.055 23.7216C134.68 23.3466 135.419 23.1591 136.271 23.1591C137.123 23.1591 137.862 23.3466 138.487 23.7216C139.112 24.0966 139.595 24.6231 139.936 25.3011C140.281 25.9792 140.453 26.7689 140.453 27.6705C140.453 28.572 140.281 29.3598 139.936 30.0341C139.595 30.7083 139.112 31.233 138.487 31.608C137.862 31.983 137.123 32.1705 136.271 32.1705ZM136.283 30.5227C136.745 30.5227 137.131 30.3958 137.442 30.142C137.752 29.8845 137.983 29.5398 138.135 29.108C138.29 28.6761 138.368 28.1951 138.368 27.6648C138.368 27.1307 138.29 26.6477 138.135 26.2159C137.983 25.7803 137.752 25.4337 137.442 25.1761C137.131 24.9186 136.745 24.7898 136.283 24.7898C135.809 24.7898 135.415 24.9186 135.101 25.1761C134.79 25.4337 134.557 25.7803 134.402 26.2159C134.25 26.6477 134.175 27.1307 134.175 27.6648C134.175 28.1951 134.25 28.6761 134.402 29.108C134.557 29.5398 134.79 29.8845 135.101 30.142C135.415 30.3958 135.809 30.5227 136.283 30.5227ZM144.336 20.3636V32H142.279V20.3636H144.336ZM149.042 32.1761C148.489 32.1761 147.991 32.0777 147.548 31.8807C147.108 31.6799 146.76 31.3845 146.502 30.9943C146.248 30.6042 146.121 30.1231 146.121 29.5511C146.121 29.0587 146.212 28.6515 146.394 28.3295C146.576 28.0076 146.824 27.75 147.139 27.5568C147.453 27.3636 147.807 27.2178 148.201 27.1193C148.599 27.017 149.01 26.9432 149.434 26.8977C149.945 26.8447 150.36 26.7973 150.678 26.7557C150.996 26.7102 151.228 26.642 151.371 26.5511C151.519 26.4564 151.593 26.3106 151.593 26.1136V26.0795C151.593 25.6515 151.466 25.3201 151.212 25.0852C150.959 24.8504 150.593 24.733 150.116 24.733C149.612 24.733 149.212 24.8428 148.917 25.0625C148.625 25.2822 148.428 25.5417 148.326 25.8409L146.406 25.5682C146.557 25.0379 146.807 24.5947 147.156 24.2386C147.504 23.8788 147.93 23.6098 148.434 23.4318C148.938 23.25 149.495 23.1591 150.104 23.1591C150.525 23.1591 150.943 23.2083 151.36 23.3068C151.777 23.4053 152.157 23.5682 152.502 23.7955C152.847 24.0189 153.123 24.3239 153.332 24.7102C153.544 25.0966 153.65 25.5795 153.65 26.1591V32H151.673V30.8011H151.604C151.479 31.0436 151.303 31.2708 151.076 31.483C150.853 31.6913 150.57 31.8598 150.229 31.9886C149.892 32.1136 149.496 32.1761 149.042 32.1761ZM149.576 30.6648C149.989 30.6648 150.347 30.5833 150.65 30.4205C150.953 30.2538 151.186 30.0341 151.349 29.7614C151.515 29.4886 151.599 29.1913 151.599 28.8693V27.8409C151.534 27.8939 151.425 27.9432 151.269 27.9886C151.118 28.0341 150.947 28.0739 150.758 28.108C150.568 28.142 150.381 28.1723 150.195 28.1989C150.01 28.2254 149.849 28.2481 149.712 28.267C149.406 28.3087 149.131 28.3769 148.889 28.4716C148.646 28.5663 148.455 28.6989 148.315 28.8693C148.175 29.036 148.104 29.2519 148.104 29.517C148.104 29.8958 148.243 30.1818 148.519 30.375C148.796 30.5682 149.148 30.6648 149.576 30.6648ZM157.855 26.8864V32H155.798V23.2727H157.764V24.7557H157.866C158.067 24.267 158.387 23.8788 158.826 23.5909C159.27 23.303 159.817 23.1591 160.469 23.1591C161.071 23.1591 161.595 23.2879 162.042 23.5455C162.493 23.803 162.842 24.1761 163.088 24.6648C163.338 25.1534 163.461 25.7462 163.457 26.4432V32H161.4V26.7614C161.4 26.178 161.249 25.7216 160.946 25.392C160.647 25.0625 160.232 24.8977 159.701 24.8977C159.342 24.8977 159.022 24.9773 158.741 25.1364C158.465 25.2917 158.247 25.517 158.088 25.8125C157.933 26.108 157.855 26.4659 157.855 26.8864Z" fill="#FAFAFF"/>
</g>
<defs>
<filter id="filter0_dd_29_1655" x="0" y="0" width="222" height="60" filterUnits="userSpaceOnUse" color-interpolation-filters="sRGB">
<feFlood flood-opacity="0" result="BackgroundImageFix"/>
<feColorMatrix in="SourceAlpha" type="matrix" values="0 0 0 0 0 0 0 0 0 0 0 0 0 0 0 0 0 0 127 0" result="hardAlpha"/>
<feOffset dy="4"/>
<feGaussianBlur stdDeviation="3"/>
<feColorMatrix type="matrix" values="0 0 0 0 0 0 0 0 0 0 0 0 0 0 0 0 0 0 0.1 0"/>
<feBlend mode="normal" in2="BackgroundImageFix" result="effect1_dropShadow_29_1655"/>
<feColorMatrix in="SourceAlpha" type="matrix" values="0 0 0 0 0 0 0 0 0 0 0 0 0 0 0 0 0 0 127 0" result="hardAlpha"/>
<feOffset dy="2"/>
<feGaussianBlur stdDeviation="2"/>
<feColorMatrix type="matrix" values="0 0 0 0 0 0 0 0 0 0 0 0 0 0 0 0 0 0 0.06 0"/>
<feBlend mode="normal" in2="effect1_dropShadow_29_1655" result="effect2_dropShadow_29_1655"/>
<feBlend mode="normal" in="SourceGraphic" in2="effect2_dropShadow_29_1655" result="shape"/>
</filter>
</defs>
</svg>
